<svg width="12" height="22" viewBox="0 0 12 22" fill="none" xmlns="http://www.w3.org/2000/svg">
<path d="M4.03302 15.3863C4.0516 14.2805 4.17706 13.4069 4.40938 12.7657C4.6417 12.1245 5.11563 11.4136 5.83118 10.633L7.65722 8.75123C8.43782 7.86841 8.82812 6.92054 8.82812 5.90762C8.82812 4.93187 8.57257 4.16986 8.06146 3.62158C7.55036 3.06401 6.80693 2.78523 5.83118 2.78523C4.88331 2.78523 4.1213 3.03613 3.54514 3.53795C2.96899 4.03976 2.68091 4.71349 2.68091 5.55914H0.102146C0.120732 4.0537 0.65507 2.84098 1.70516 1.92099C2.76454 0.991707 4.13988 0.527066 5.83118 0.527066C7.58753 0.527066 8.95357 1.001 9.92932 1.94887C10.9144 2.88745 11.4069 4.17915 11.4069 5.82398C11.4069 7.45023 10.6542 9.05324 9.14872 10.633L7.62935 12.1385C6.95097 12.8912 6.61178 13.9738 6.61178 15.3863H4.03302ZM3.9215 19.8051C3.9215 19.3869 4.04696 19.0384 4.29786 18.7596C4.55806 18.4715 4.93907 18.3275 5.44088 18.3275C5.94269 18.3275 6.3237 18.4715 6.5839 18.7596C6.8441 19.0384 6.9742 19.3869 6.9742 19.8051C6.9742 20.2232 6.8441 20.5717 6.5839 20.8505C6.3237 21.12 5.94269 21.2547 5.44088 21.2547C4.93907 21.2547 4.55806 21.12 4.29786 20.8505C4.04696 20.5717 3.9215 20.2232 3.9215 19.8051Z" fill="black"/>
</svg>
