<svg version="1.1" id="Lag_1" xmlns="http://www.w3.org/2000/svg" xmlns:xlink="http://www.w3.org/1999/xlink" x="0px" y="0px"
	 viewBox="0 0 150 150" style="enable-background:new 0 0 150 150;" xml:space="preserve" height="40px" width="40px">
<style type="text/css">
	.st0{fill:none;stroke:#000000;stroke-width:2.5;}
	.st1{fill:none;stroke:#000000;stroke-width:2.077;}
	.st2{fill:none;stroke:#ABAAA6;stroke-width:0.646;}
	.st3{fill:none;stroke:#1D1D1B;stroke-width:1.5;}
</style>
<g>
	<path class="st0" d="M47.4,63.3c0,0-37.7,72,24.3,75c16.8,0.9,52.9-8.1,34.8-73.4c0,0-1.9,3.7-9.8,13.9c-3.7,4.8-11,8-15,16.3
		c0,0,9.4-28.3-6.1-56.6C60.2,10.2,39.1,6.8,39.1,6.8S60.3,30,47.4,63.3z"/>
	<path class="st1" d="M82.9,29.8c3.2,12.3,9.3,18.7,8.7,38.7c0,0,12.7-14,12.6-28.1c0-8.9-3.4-13.6-10.7-20.1
		C84.9,12.6,82.3,8.5,82.3,8.5S79.8,17.5,82.9,29.8z"/>
</g>
<path class="st2" d="M84.4,95.1"/>
<g>
	<path class="st3" d="M52.6,84.2c0,0-17.7,40.3,19.3,41.3c0,0-15.9-12.4-12.6-29.3c3.3-16.8,4.4-30.1,3.4-36.8
		C62.7,59.5,59.5,68.3,52.6,84.2z"/>
</g>
</svg>
