<?xml version="1.0" standalone="no"?>
<!DOCTYPE svg PUBLIC "-//W3C//DTD SVG 20010904//EN"
 "http://www.w3.org/TR/2001/REC-SVG-20010904/DTD/svg10.dtd">
<svg version="1.0" xmlns="http://www.w3.org/2000/svg"
 width="700.000000pt" height="700.000000pt" viewBox="0 0 700.000000 700.000000"
 preserveAspectRatio="xMidYMid meet">
<metadata>
Created by potrace 1.14, written by Peter Selinger 2001-2017
</metadata>
<g transform="translate(0.000000,700.000000) scale(0.100000,-0.100000)"
fill="#000000" stroke="none">
<path d="M1680 6763 c0 -5 23 -34 51 -64 85 -91 192 -238 272 -374 120 -205
256 -560 291 -760 3 -16 10 -59 16 -95 6 -36 13 -76 15 -90 28 -155 25 -521
-6 -710 -6 -36 -13 -78 -16 -95 -25 -154 -119 -456 -179 -575 -87 -172 -215
-495 -300 -760 -40 -125 -115 -408 -129 -490 -48 -281 -49 -287 -62 -435 -13
-154 -7 -439 12 -535 3 -14 10 -52 16 -85 79 -444 349 -800 754 -997 180 -87
442 -162 645 -184 25 -3 59 -7 75 -9 54 -8 239 -19 320 -19 229 0 475 42 675
115 449 164 768 468 954 908 41 96 90 247 102 311 3 14 11 52 18 85 8 33 17
83 20 110 4 28 9 66 12 85 26 191 25 703 -1 835 -2 11 -7 47 -10 80 -14 133
-57 378 -100 573 -20 86 -38 166 -40 177 -12 55 -88 332 -95 344 -5 9 -22 -15
-54 -74 -97 -184 -417 -626 -546 -756 -41 -42 -118 -111 -170 -154 -52 -44
-135 -118 -183 -166 l-89 -87 7 51 c4 29 8 61 9 72 2 11 6 45 10 75 4 30 9 71
11 90 21 161 21 565 0 740 -2 19 -7 60 -10 90 -10 86 -45 292 -55 325 -5 17
-11 41 -14 55 -8 51 -38 159 -77 279 -202 631 -631 1260 -1128 1655 -122 97
-288 203 -431 276 -131 66 -333 142 -415 155 -22 4 -49 8 -60 10 -76 13 -101
18 -107 22 -5 2 -8 0 -8 -4z m515 -278 c72 -35 155 -79 185 -99 85 -55 212
-143 241 -168 15 -13 49 -41 77 -63 83 -65 321 -312 416 -430 115 -144 272
-382 354 -535 126 -236 178 -359 250 -581 37 -113 90 -318 106 -409 3 -19 8
-44 10 -55 30 -153 50 -398 50 -610 0 -139 -12 -383 -19 -395 -2 -3 -6 -36
-10 -75 -3 -38 -8 -72 -10 -75 -1 -3 -6 -27 -9 -53 -10 -75 -24 -142 -51 -249
-14 -54 -25 -101 -25 -104 0 -5 87 -44 100 -44 4 0 25 30 45 67 72 131 164
232 385 422 80 69 171 152 203 185 66 68 206 252 355 463 85 121 101 139 106
120 30 -106 96 -407 110 -499 3 -21 12 -75 20 -120 8 -46 18 -110 21 -143 4
-33 9 -68 11 -78 26 -141 26 -726 0 -877 -3 -14 -7 -41 -10 -60 -30 -205 -103
-428 -197 -608 -263 -503 -796 -802 -1434 -806 -239 -1 -431 18 -619 63 -511
122 -840 377 -1001 776 -35 87 -80 251 -90 330 -4 28 -11 77 -15 110 -20 156
0 510 41 740 6 33 13 71 15 85 56 316 229 827 411 1210 126 267 212 595 239
917 12 139 6 448 -10 528 -2 11 -7 40 -10 65 -3 25 -8 56 -11 70 -3 14 -8 39
-11 55 -16 92 -69 288 -93 350 -5 11 -27 70 -51 130 -51 133 -159 344 -234
459 l-55 86 42 -16 c23 -9 101 -44 172 -79z"/>
<path d="M2814 4033 c-84 -215 -231 -575 -264 -647 -11 -25 -20 -47 -20 -50 0
-3 -12 -31 -26 -63 -66 -147 -98 -224 -134 -328 -29 -80 -84 -273 -95 -330
-49 -257 -61 -426 -43 -627 40 -441 328 -750 785 -842 104 -21 129 -24 263
-31 63 -4 127 -8 143 -10 39 -5 34 6 -23 49 -82 63 -178 159 -287 288 -125
150 -259 409 -297 578 -37 162 -42 320 -15 470 10 58 21 121 24 140 4 19 8 42
10 50 2 8 7 31 10 50 3 19 10 60 15 90 5 30 12 71 15 90 3 19 10 60 15 90 9
52 12 79 25 183 3 23 8 53 10 67 2 14 7 52 11 85 6 59 8 81 18 180 23 227 28
646 8 703 -2 6 -19 12 -37 12 l-33 0 -78 -197z m91 -144 c-5 -204 -13 -311
-40 -549 -4 -30 -9 -70 -11 -89 -3 -34 -5 -46 -24 -169 -6 -34 -12 -74 -14
-90 -2 -15 -9 -58 -15 -97 -7 -38 -14 -83 -17 -100 -3 -16 -7 -37 -9 -45 -2
-8 -6 -33 -10 -55 -5 -36 -25 -145 -41 -220 -3 -16 -7 -91 -9 -165 -4 -264 73
-509 241 -768 58 -89 158 -216 223 -282 20 -20 44 -46 55 -58 18 -21 18 -21 0
-18 -11 2 -46 7 -79 10 -494 58 -795 334 -851 781 -14 111 -8 385 11 469 3 11
7 32 9 46 33 205 102 428 202 658 8 17 20 47 28 65 34 78 58 133 66 152 20 42
179 436 226 557 27 70 52 128 56 128 4 0 6 -72 3 -161z"/>
<path d="M3801 6643 c-40 -151 -50 -253 -46 -493 2 -124 6 -241 9 -260 40
-251 95 -447 216 -760 92 -240 137 -374 170 -515 59 -251 75 -404 75 -728 l0
-208 49 52 c206 222 430 579 529 844 81 217 107 362 103 570 -4 178 -19 264
-67 384 -79 199 -154 288 -574 686 -196 186 -317 318 -390 428 l-53 78 -21
-78z m304 -408 c88 -88 223 -218 298 -289 243 -227 361 -411 392 -611 4 -27 9
-61 11 -75 9 -53 5 -259 -6 -325 -33 -210 -111 -416 -242 -644 -77 -134 -225
-354 -229 -340 -1 2 -2 31 -4 64 -5 111 -16 270 -20 290 -2 11 -7 43 -10 70
-22 199 -84 420 -207 745 -158 416 -212 617 -234 870 -13 154 -8 379 10 465 3
11 5 22 5 25 1 3 18 -15 38 -40 20 -25 109 -117 198 -205z"/>
</g>
</svg>
